HIERARCHY
ROOT Hips
{
  OFFSET 246.921 91.2784 922.987
  CHANNELS 6 Xposition Yposition Zposition Zrotation Xrotation Yrotation
  JOINT Spine
  {
    OFFSET -3.09105e-05 8 0
    CHANNELS 6 Xposition Yposition Zposition Zrotation Xrotation Yrotation
    JOINT Spine1
    {
      OFFSET 5.58286e-05 8 1.59538e-05
      CHANNELS 6 Xposition Yposition Zposition Zrotation Xrotation Yrotation
      JOINT Spine2
      {
        OFFSET -4.46936e-05 8 -3.32782e-05
        CHANNELS 6 Xposition Yposition Zposition Zrotation Xrotation Yrotation
        JOINT Spine3
        {
          OFFSET 0 8 0
          CHANNELS 6 Xposition Yposition Zposition Zrotation Xrotation Yrotation
          JOINT Neck
          {
            OFFSET -0.000138204 17 0.000265835
            CHANNELS 6 Xposition Yposition Zposition Zrotation Xrotation Yrotation
            JOINT Head
            {
              OFFSET -1.79259e-05 10.8 0
              CHANNELS 6 Xposition Yposition Zposition Zrotation Xrotation Yrotation
              End Site
              {
                OFFSET 0 20.25 0
              }
            }
          }
          JOINT LeftShoulder
          {
            OFFSET 4.99981 17.0001 -1.59321e-05
            CHANNELS 6 Xposition Yposition Zposition Zrotation Xrotation Yrotation
            JOINT LeftShoulder2
            {
              OFFSET 6.45 0 0
              CHANNELS 6 Xposition Yposition Zposition Zrotation Xrotation Yrotation
              JOINT LeftArm
              {
                OFFSET 6.45005 6.5826e-05 1.45768e-05
                CHANNELS 6 Xposition Yposition Zposition Zrotation Xrotation Yrotation
                JOINT LeftForeArm
                {
                  OFFSET -2.97151e-05 -32.4 -2.00001
                  CHANNELS 6 Xposition Yposition Zposition Zrotation Xrotation Yrotation
                  JOINT LeftHand
                  {
                    OFFSET 0 -25.65 2.00001
                    CHANNELS 6 Xposition Yposition Zposition Zrotation Xrotation Yrotation
                    JOINT LeftHandThumb1
                    {
                      OFFSET -0.499979 -1.49998 2.65002
                      CHANNELS 6 Xposition Yposition Zposition Zrotation Xrotation Yrotation
                      JOINT LeftHandThumb2
                      {
                        OFFSET 0 -3.80001 3.69998
                        CHANNELS 6 Xposition Yposition Zposition Zrotation Xrotation Yrotation
                        JOINT LeftHandThumb3
                        {
                          OFFSET 0 -3.00002 2.70001
                          CHANNELS 6 Xposition Yposition Zposition Zrotation Xrotation Yrotation
                          End Site
                          {
                            OFFSET 1.5224e-05 -2.3 1.79999
                          }
                        }
                      }
                    }
                    JOINT LeftHandIndex
                    {
                      OFFSET 1.73939e-05 -1.90001 1.60002
                      CHANNELS 6 Xposition Yposition Zposition Zrotation Xrotation Yrotation
                      JOINT LeftHandIndex1
                      {
                        OFFSET 0 -8.30001 1.90001
                        CHANNELS 6 Xposition Yposition Zposition Zrotation Xrotation Yrotation
                        JOINT LeftHandIndex2
                        {
                          OFFSET 0 -4.5 -3.22627e-05
                          CHANNELS 6 Xposition Yposition Zposition Zrotation Xrotation Yrotation
                          JOINT LeftHandIndex3
                          {
                            OFFSET -1.97599e-05 -3.39997 0
                            CHANNELS 6 Xposition Yposition Zposition Zrotation Xrotation Yrotation
                            End Site
                            {
                              OFFSET 0 -2.59998 1.22237e-05
                            }
                          }
                        }
                      }
                    }
                    JOINT LeftHandMiddle
                    {
                      OFFSET -0.249998 -2.2 0.399988
                      CHANNELS 6 Xposition Yposition Zposition Zrotation Xrotation Yrotation
                      JOINT LeftHandMiddle1
                      {
                        OFFSET 0 -8.30002 1
                        CHANNELS 6 Xposition Yposition Zposition Zrotation Xrotation Yrotation
                        JOINT LeftHandMiddle2
                        {
                          OFFSET 0 -4.65001 1.06943e-05
                          CHANNELS 6 Xposition Yposition Zposition Zrotation Xrotation Yrotation
                          JOINT LeftHandMiddle3
                          {
                            OFFSET 0 -3.29997 2.78855e-05
                            CHANNELS 6 Xposition Yposition Zposition Zrotation Xrotation Yrotation
                            End Site
                            {
                              OFFSET -1.02661e-05 -2.70003 -3.60093e-05
                            }
                          }
                        }
                      }
                    }
                    JOINT LeftHandRing
                    {
                      OFFSET -0.499984 -2.15 -0.799971
                      CHANNELS 6 Xposition Yposition Zposition Zrotation Xrotation Yrotation
                      JOINT LeftHandRing1
                      {
                        OFFSET -1.1478e-05 -7.75002 -0.200039
                        CHANNELS 6 Xposition Yposition Zposition Zrotation Xrotation Yrotation
                        JOINT LeftHandRing2
                        {
                          OFFSET 0 -3.79999 2.5097e-05
                          CHANNELS 6 Xposition Yposition Zposition Zrotation Xrotation Yrotation
                          JOINT LeftHandRing3
                          {
                            OFFSET 0 -3.4 0
                            CHANNELS 6 Xposition Yposition Zposition Zrotation Xrotation Yrotation
                            End Site
                            {
                              OFFSET 0 -2.6 0
                            }
                          }
                        }
                      }
                    }
                    JOINT LeftHandPinky
                    {
                      OFFSET -0.749993 -1.75002 -1.85
                      CHANNELS 6 Xposition Yposition Zposition Zrotation Xrotation Yrotation
                      JOINT LeftHandPinky1
                      {
                        OFFSET 0 -7.15 -1
                        CHANNELS 6 Xposition Yposition Zposition Zrotation Xrotation Yrotation
                        JOINT LeftHandPinky2
                        {
                          OFFSET 0 -3 -1.18593e-05
                          CHANNELS 6 Xposition Yposition Zposition Zrotation Xrotation Yrotation
                          JOINT LeftHandPinky3
                          {
                            OFFSET -1.01587e-05 -2.34999 2.04206e-05
                            CHANNELS 6 Xposition Yposition Zposition Zrotation Xrotation Yrotation
                            End Site
                            {
                              OFFSET 0 -2.09999 0
                            }
                          }
                        }
                      }
                    }
                  }
                }
              }
            }
          }
          JOINT RightShoulder
          {
            OFFSET -5.00015 17 0.000552642
            CHANNELS 6 Xposition Yposition Zposition Zrotation Xrotation Yrotation
            JOINT RightShoulder2
            {
              OFFSET -6.45 0 0
              CHANNELS 6 Xposition Yposition Zposition Zrotation Xrotation Yrotation
              JOINT RightArm
              {
                OFFSET -6.44998 -0.000135688 -0.00018298
                CHANNELS 6 Xposition Yposition Zposition Zrotation Xrotation Yrotation
                JOINT RightForeArm
                {
                  OFFSET -2.35282e-05 -32.4 -1.99998
                  CHANNELS 6 Xposition Yposition Zposition Zrotation Xrotation Yrotation
                  JOINT RightHand
                  {
                    OFFSET 2.39025e-05 -25.65 2.00001
                    CHANNELS 6 Xposition Yposition Zposition Zrotation Xrotation Yrotation
                    JOINT RightHandThumb1
                    {
                      OFFSET 0.500011 -1.5 2.65
                      CHANNELS 6 Xposition Yposition Zposition Zrotation Xrotation Yrotation
                      JOINT RightHandThumb2
                      {
                        OFFSET -2.20839e-05 -3.79999 3.70002
                        CHANNELS 6 Xposition Yposition Zposition Zrotation Xrotation Yrotation
                        JOINT RightHandThumb3
                        {
                          OFFSET -2.08214e-05 -3 2.69999
                          CHANNELS 6 Xposition Yposition Zposition Zrotation Xrotation Yrotation
                          End Site
                          {
                            OFFSET 1.67932e-05 -2.3 1.80001
                          }
                        }
                      }
                    }
                    JOINT RightHandIndex
                    {
                      OFFSET 0 -1.90003 1.6
                      CHANNELS 6 Xposition Yposition Zposition Zrotation Xrotation Yrotation
                      JOINT RightHandIndex1
                      {
                        OFFSET 0 -8.29996 1.9
                        CHANNELS 6 Xposition Yposition Zposition Zrotation Xrotation Yrotation
                        JOINT RightHandIndex2
                        {
                          OFFSET -2.88461e-05 -4.50003 0
                          CHANNELS 6 Xposition Yposition Zposition Zrotation Xrotation Yrotation
                          JOINT RightHandIndex3
                          {
                            OFFSET 3.07255e-05 -3.39999 0
                            CHANNELS 6 Xposition Yposition Zposition Zrotation Xrotation Yrotation
                            End Site
                            {
                              OFFSET 0 -2.6 0
                            }
                          }
                        }
                      }
                    }
                    JOINT RightHandMiddle
                    {
                      OFFSET 0.24997 -2.20002 0.399987
                      CHANNELS 6 Xposition Yposition Zposition Zrotation Xrotation Yrotation
                      JOINT RightHandMiddle1
                      {
                        OFFSET 3.38727e-05 -8.3 1.00001
                        CHANNELS 6 Xposition Yposition Zposition Zrotation Xrotation Yrotation
                        JOINT RightHandMiddle2
                        {
                          OFFSET 0 -4.64999 0
                          CHANNELS 6 Xposition Yposition Zposition Zrotation Xrotation Yrotation
                          JOINT RightHandMiddle3
                          {
                            OFFSET 0 -3.30001 0
                            CHANNELS 6 Xposition Yposition Zposition Zrotation Xrotation Yrotation
                            End Site
                            {
                              OFFSET 1.64058e-05 -2.69996 -1.47455e-05
                            }
                          }
                        }
                      }
                    }
                    JOINT RightHandRing
                    {
                      OFFSET 0.499999 -2.15002 -0.799998
                      CHANNELS 6 Xposition Yposition Zposition Zrotation Xrotation Yrotation
                      JOINT RightHandRing1
                      {
                        OFFSET -2.61733e-05 -7.75001 -0.200009
                        CHANNELS 6 Xposition Yposition Zposition Zrotation Xrotation Yrotation
                        JOINT RightHandRing2
                        {
                          OFFSET 4.2294e-05 -3.80001 0
                          CHANNELS 6 Xposition Yposition Zposition Zrotation Xrotation Yrotation
                          JOINT RightHandRing3
                          {
                            OFFSET 1.86286e-05 -3.39999 0
                            CHANNELS 6 Xposition Yposition Zposition Zrotation Xrotation Yrotation
                            End Site
                            {
                              OFFSET 1.30716e-05 -2.59997 0
                            }
                          }
                        }
                      }
                    }
                    JOINT RightHandPinky
                    {
                      OFFSET 0.75 -1.75 -1.85
                      CHANNELS 6 Xposition Yposition Zposition Zrotation Xrotation Yrotation
                      JOINT RightHandPinky1
                      {
                        OFFSET 1.15929e-05 -7.15 -0.999997
                        CHANNELS 6 Xposition Yposition Zposition Zrotation Xrotation Yrotation
                        JOINT RightHandPinky2
                        {
                          OFFSET 0 -2.99999 0
                          CHANNELS 6 Xposition Yposition Zposition Zrotation Xrotation Yrotation
                          JOINT RightHandPinky3
                          {
                            OFFSET 0 -2.34999 0
                            CHANNELS 6 Xposition Yposition Zposition Zrotation Xrotation Yrotation
                            End Site
                            {
                              OFFSET 0 -2.09998 0
                            }
                          }
                        }
                      }
                    }
                  }
                }
              }
            }
          }
        }
      }
    }
  }
  JOINT LeftUpLeg
  {
    OFFSET 7.99999 0 0
    CHANNELS 6 Xposition Yposition Zposition Zrotation Xrotation Yrotation
    JOINT LeftLeg
    {
      OFFSET 0 -45 -0.99997
      CHANNELS 6 Xposition Yposition Zposition Zrotation Xrotation Yrotation
      JOINT LeftFoot
      {
        OFFSET 0 -41 -1.99999
        CHANNELS 6 Xposition Yposition Zposition Zrotation Xrotation Yrotation
        JOINT LeftToeBase
        {
          OFFSET -1.17721e-05 -7.5 12.5
          CHANNELS 6 Xposition Yposition Zposition Zrotation Xrotation Yrotation
          JOINT LeftFootToe
          {
            OFFSET 0 0 4
            CHANNELS 6 Xposition Yposition Zposition Zrotation Xrotation Yrotation
            End Site
            {
              OFFSET 0 0 0
            }
          }
        }
      }
    }
  }
  JOINT RightUpLeg
  {
    OFFSET -7.99999 0 0
    CHANNELS 6 Xposition Yposition Zposition Zrotation Xrotation Yrotation
    JOINT RightLeg
    {
      OFFSET 0 -45 -0.999991
      CHANNELS 6 Xposition Yposition Zposition Zrotation Xrotation Yrotation
      JOINT RightFoot
      {
        OFFSET 1.29074e-05 -41.0001 -2.00001
        CHANNELS 6 Xposition Yposition Zposition Zrotation Xrotation Yrotation
        JOINT RightToeBase
        {
          OFFSET 0 -7.5 12.5
          CHANNELS 6 Xposition Yposition Zposition Zrotation Xrotation Yrotation
          JOINT RightFootToe
          {
            OFFSET 0 0 4
            CHANNELS 6 Xposition Yposition Zposition Zrotation Xrotation Yrotation
            End Site
            {
              OFFSET 0 0 0
            }
          }
        }
      }
    }
  }
}
MOTION
Frames:	3
Frame Time:	0.0111111
240.585 93.1021 923.77 -0.0369775 -1.95935 86.9556 -1.13687e-13 8 0 3.25694 1.78979 15.0413 -1.13687e-13 8 0 0.240735 0.572993 11.6614 0 8 -2.84217e-14 -1.94255 -3.8013 -55.9585 0 8 -1.13687e-13 0.13455 0.279585 5.81638 0 17 0 3.43543 0.108147 -5.41749 -1.13687e-13 10.8 0 -6.16864 -6.4129 -12.8314 5 17 0 -14.8807 0.871825 3.71484 6.45 0 0 1.02253 0.435352 -2.86808 6.45 5.68434e-14 0 21.7251 -7.5335 30.9368 0 -32.4 -2 -38.626 -48.8005 9.82433 0 -25.65 2 -11.5714 4.63881 7.66451 -0.5 -1.5 2.65 0.0870218 -18.5398 3.87932 1.13687e-13 -3.8 3.7 -0.00962969 19.1724 0.0102965 -1.13687e-13 -3 2.7 0.00826639 57.1429 -0.021789 1.13687e-13 -1.9 1.6 -1.97147e-06 2.8894e-06 -7.44761e-06 1.13687e-13 -8.3 1.9 -0.148012 3.30475 0.0348916 0 -4.5 5.68434e-14 -4.30974 0.00206505 0.00537105 0 -3.4 5.68434e-14 -4.06547 -6.07791e-05 0.00382159 -0.25 -2.2 0.4 -1.97147e-06 2.8894e-06 -7.44761e-06 -1.13687e-13 -8.3 1 -13.1093 11.7244 2.1787 0 -4.65 -5.68434e-14 -21.0185 -0.00312539 0.00734989 2.84217e-14 -3.3 0 -16.5483 0.000977749 0.000199722 -0.5 -2.15 -0.8 -1.97147e-06 2.8894e-06 -7.44761e-06 0 -7.75 -0.2 -31.8 17.0804 6.98298 -5.68434e-14 -3.8 0 -15.3248 -0.0022441 0.00822847 5.68434e-14 -3.4 0 -12.7315 2.47795e-06 0.0049262 -0.75 -1.75 -1.85 -1.97147e-06 2.8894e-06 -7.44761e-06 0 -7.15 -1 -47.7872 20.8101 12.6892 1.42109e-14 -3 0 0.000149156 -0.00875146 0.0474022 4.26326e-14 -2.35 0 -5.77216e-05 0.0499652 0.000966706 -5 17 0 -1.58 4.73338 2.2278 -6.45 0 0 0.346572 -0.856577 -3.07222 -6.45 0 -1.13687e-13 -76.2978 4.7965 -16.7473 2.84217e-14 -32.4 -2 61.1028 -55.2273 67.3314 -5.68434e-14 -25.65 2 -24.9647 -24.0493 5.8304 0.5 -1.5 2.65 13.0964 -12.0876 6.99349 5.68434e-14 -3.8 3.7 0.793428 12.1268 -0.227411 0 -3 2.7 0.0468913 10.5594 -0.0685146 5.68434e-14 -1.9 1.6 4.12027e-06 9.54523e-07 1.18526e-06 -4.9738e-14 -8.3 1.9 0.0439904 0.16199 0.0219094 2.13163e-14 -4.5 0 29.1411 -0.0763418 -0.121028 0 -3.4 0 21.5697 -0.0695839 -0.050412 0.25 -2.2 0.4 4.12027e-06 9.54523e-07 1.18526e-06 -7.10543e-15 -8.3 1 15.2346 1.13691 -1.11037 5.68434e-14 -4.65 -1.13687e-13 86.6053 -0.11685 0.0299416 -1.13687e-13 -3.3 1.13687e-13 80.3207 0.0159076 0.303281 0.5 -2.15 -0.8 4.12027e-06 9.54523e-07 1.18526e-06 -2.13163e-14 -7.75 -0.2 43.2587 2.45307 -3.83393 0 -3.8 -1.13687e-13 83.4658 -0.0309483 0.0104869 0 -3.4 0 72.55 0.0254545 0.08005 0.75 -1.75 -1.85 4.12027e-06 9.54523e-07 1.18526e-06 -2.13163e-14 -7.15 -1 60.2798 -0.417814 -4.32738 0 -3 0 64.5353 -0.123202 0.0908296 1.13687e-13 -2.35 0 46.3651 -0.0180533 0.147289 8 1.42109e-14 0 9.62786 -16.1802 0.770441 1.13687e-13 -45 -1 -0.018556 6.74151 0.215809 -1.13687e-13 -41 -2 -3.11602 1.44698 2.62056 0 -7.5 12.5 1.05034e-07 0.00325918 2.72137e-06 1.13687e-13 0 4 1.59894 -0.568483 -5.13924 -8 -2.13163e-14 0 0.0108834 -1.22204 -24.3832 0 -45 -1 0.00455844 4.2461 0.0462069 0 -41 -2 1.23159 -2.27412 -5.83505 0 -7.5 12.5 7.03918e-10 0.00843689 2.69426e-06 0 3.46945e-18 4 0.0281401 0.914845 14.4234 
241.083 93.0799 923.4 -0.0577208 -1.96517 86.689 -1.13687e-13 8 0 3.1571 1.76538 15.0376 0 8 2.84217e-14 0.258504 0.535592 11.6821 0 8 0 -1.93387 -3.82087 -55.9488 0 8 1.13687e-13 0.142654 0.260205 5.82611 0 17 0 3.42531 0.149293 -5.37068 0 10.8 1.13687e-13 -6.14346 -6.40039 -12.7194 5 17 1.13687e-13 -14.9738 0.916528 3.75034 6.45 2.84217e-14 0 1.0198 0.432182 -2.85775 6.45 2.84217e-14 0 22.4281 -8.17475 31.773 0 -32.4 -2 -37.9577 -48.6579 10.418 -1.13687e-13 -25.65 2 -11.3633 4.66336 7.53908 -0.5 -1.5 2.65 0.18881 -18.3606 3.62028 0 -3.8 3.7 -0.00956891 18.8524 0.0102767 0 -3 2.7 0.00774109 56.378 -0.0213497 0 -1.9 1.6 -1.97147e-06 2.8894e-06 -7.44761e-06 0 -8.3 1.9 -0.153003 3.36033 0.0348936 0 -4.5 -5.68434e-14 -4.10167 0.00206505 0.00537105 0 -3.4 0 -3.87999 -6.07791e-05 0.00382159 -0.25 -2.2 0.4 -1.97147e-06 2.8894e-06 -7.44761e-06 -1.13687e-13 -8.3 1 -13.3015 11.8804 2.23708 -5.68434e-14 -4.65 -2.84217e-14 -21.2042 -0.00312539 0.00734989 7.10543e-14 -3.3 -5.68434e-14 -16.668 0.000977749 0.000199722 -0.5 -2.15 -0.8 -1.97147e-06 2.8894e-06 -7.44761e-06 0 -7.75 -0.2 -32.311 17.097 7.11664 0 -3.8 5.68434e-14 -15.3107 -0.0022441 0.00822847 8.52651e-14 -3.4 0 -12.7216 2.47795e-06 0.0049262 -0.75 -1.75 -1.85 -1.97147e-06 2.8894e-06 -7.44761e-06 1.13687e-13 -7.15 -1 -48.6872 20.6104 12.8861 0 -3 0 0.000149156 -0.00875146 0.0474022 5.68434e-14 -2.35 0 -5.77216e-05 0.0499652 0.000966706 -5 17 0 -1.60914 4.75512 2.40503 -6.45 2.84217e-14 1.13687e-13 0.335208 -0.850901 -3.096 -6.45 2.84217e-14 0 -76.3401 4.59693 -17.2588 0 -32.4 -2 63.876 -55.7964 69.8895 -5.68434e-14 -25.65 2 -24.8666 -24.2395 6.21657 0.5 -1.5 2.65 13.8326 -10.4807 7.57633 5.68434e-14 -3.8 3.7 0.918384 11.6407 -0.264466 1.42109e-14 -3 2.7 0.0588369 10.7814 -0.07705 3.55271e-14 -1.9 1.6 4.12027e-06 9.54523e-07 1.18526e-06 -3.55271e-14 -8.3 1.9 0.0397083 -0.489014 0.0219101 2.13163e-14 -4.5 0 28.0267 -0.0763418 -0.121028 -5.68434e-14 -3.4 0 20.8967 -0.0695839 -0.0525755 0.25 -2.2 0.4 4.12027e-06 9.54523e-07 1.18526e-06 7.10543e-15 -8.3 1 14.7415 0.670016 -1.0319 0 -4.65 0 85.5637 -0.138513 0.0299417 -1.13687e-13 -3.3 0 77.7753 -0.00106466 0.336816 0.5 -2.15 -0.8 4.12027e-06 9.54523e-07 1.18526e-06 -3.55271e-14 -7.75 -0.2 42.5062 2.25639 -3.6903 0 -3.8 0 83.0934 -0.0309483 0.0104869 0 -3.4 0 71.7755 0.0246493 0.0803453 0.75 -1.75 -1.85 4.12027e-06 9.54523e-07 1.18526e-06 -2.13163e-14 -7.15 -1 59.8448 -0.492547 -4.21639 1.13687e-13 -3 0 63.0651 -0.128228 0.0893836 0 -2.35 1.13687e-13 44.946 -0.0252867 0.142935 8 0 0 9.48396 -15.7286 0.60674 0 -45 -1 -0.0118882 6.15226 0.174172 1.13687e-13 -41 -2 -3.32945 1.74171 2.265 0 -7.5 12.5 1.05034e-07 0.00325918 2.72137e-06 1.13687e-13 7.10543e-15 4 1.8716 -0.879731 -5.14105 -8 -1.42109e-14 0 -0.22626 -0.954501 -24.1323 -1.13687e-13 -45 -1 0.0015066 4.2506 0.0873329 0 -41 -2 1.58168 -2.43433 -5.92581 0 -7.5 12.5 7.03918e-10 0.00843689 2.69426e-06 0 0 4 -0.436434 0.947436 14.4246 
241.583 93.0537 923.015 -0.0767264 -1.96648 86.4237 0 8 0 3.04393 1.74856 15.0355 0 8 0 0.277858 0.495823 11.702 0 8 -2.84217e-14 -1.9245 -3.84166 -55.9395 0 8 0 0.151266 0.240378 5.83576 0 17 -1.13687e-13 3.40957 0.19287 -5.32623 -1.13687e-13 10.8 0 -6.12022 -6.39235 -12.6135 5 17 -1.13687e-13 -15.0664 0.955739 3.78288 6.45 -2.84217e-14 0 1.01693 0.428986 -2.84792 6.45 5.68434e-14 1.13687e-13 23.1182 -8.81498 32.5869 0 -32.4 -2 -37.2702 -48.5287 11.0128 0 -25.65 2 -11.1493 4.68711 7.42962 -0.5 -1.5 2.65 0.285753 -18.1843 3.36869 0 -3.8 3.7 -0.00951005 18.5412 0.0102578 0 -3 2.7 0.00724658 55.6288 -0.0209397 0 -1.9 1.6 -1.97147e-06 2.8894e-06 -7.44761e-06 -1.13687e-13 -8.3 1.9 -0.159751 3.43264 0.0348962 -1.13687e-13 -4.5 1.13687e-13 -3.88977 0.00206505 0.00537105 0 -3.4 5.68434e-14 -3.68952 -6.07791e-05 0.00396528 -0.25 -2.2 0.4 -1.97147e-06 2.8894e-06 -7.44761e-06 -1.13687e-13 -8.3 1 -13.5054 12.0501 2.29965 0 -4.65 -8.52651e-14 -21.3517 -0.00312539 0.00734989 5.68434e-14 -3.3 5.68434e-14 -16.7629 0.00025232 0.000199722 -0.5 -2.15 -0.8 -1.97147e-06 2.8894e-06 -7.44761e-06 1.13687e-13 -7.75 -0.2 -32.829 17.0967 7.24652 -2.84217e-14 -3.8 0 -15.2809 -0.0022441 0.00822847 5.68434e-14 -3.4 -5.68434e-14 -12.7007 2.47795e-06 0.0049262 -0.75 -1.75 -1.85 -1.97147e-06 2.8894e-06 -7.44761e-06 0 -7.15 -1 -49.6041 20.3686 13.0646 -2.84217e-14 -3 -5.68434e-14 0.000149156 -0.00875146 0.0474022 1.42109e-14 -2.35 0 -5.77216e-05 0.0499652 0.000966706 -5 17 0 -1.64015 4.77898 2.57474 -6.45 2.84217e-14 0 0.323899 -0.844587 -3.1205 -6.45 -5.68434e-14 0 -76.3697 4.3772 -17.8054 0 -32.4 -2 66.7672 -56.3288 72.5523 -5.68434e-14 -25.65 2 -24.7287 -24.389 6.60441 0.5 -1.5 2.65 14.731 -8.31338 8.07357 5.68434e-14 -3.8 3.7 1.03969 11.0744 -0.301649 -1.42109e-14 -3 2.7 0.069765 10.9853 -0.0863102 4.9738e-14 -1.9 1.6 4.12027e-06 9.54523e-07 1.18526e-06 -4.9738e-14 -8.3 1.9 0.0489801 -1.10694 0.0221054 3.55271e-14 -4.5 0 26.8814 -0.0755798 -0.122123 -5.68434e-14 -3.4 0 20.1974 -0.069129 -0.0545945 0.25 -2.2 0.4 4.12027e-06 9.54523e-07 1.18526e-06 0 -8.3 1 13.8786 0.309541 -0.961983 5.68434e-14 -4.65 0 84.1845 -0.160854 0.0303936 0 -3.3 0 74.8325 -0.0248317 0.357602 0.5 -2.15 -0.8 4.12027e-06 9.54523e-07 1.18526e-06 -2.84217e-14 -7.75 -0.2 40.8907 2.29611 -3.58227 0 -3.8 0 82.7229 -0.0293856 0.0104869 0 -3.4 1.13687e-13 71.0236 0.0228801 0.0758146 0.75 -1.75 -1.85 4.12027e-06 9.54523e-07 1.18526e-06 -5.68434e-14 -7.15 -1 59.3348 -0.577986 -4.09435 1.13687e-13 -3 1.13687e-13 61.6392 -0.128013 0.0844369 0 -2.35 0 43.6311 -0.0287987 0.134077 8 2.13163e-14 0 9.30486 -15.3071 0.454605 0 -45 -1 -0.00672407 5.68084 0.136402 0 -41 -2 -3.54625 2.07498 1.89942 0 -7.5 12.5 1.05032e-07 0.00331072 2.72137e-06 0 0 4 2.1499 -1.22003 -5.12503 -8 -1.42109e-14 0 -0.47965 -0.68925 -23.8914 0 -45 -1 -0.00144117 4.25293 0.127034 0 -41 -2 1.93593 -2.59059 -6.01618 -1.13687e-13 -7.5 12.5 7.41833e-10 0.00763058 2.69426e-06 0 0 4 -0.900315 0.979203 14.4153 
